<?xml version="1.0" encoding="utf-8"?>
<!-- Generator: Adobe Illustrator 17.1.0, SVG Export Plug-In . SVG Version: 6.00 Build 0)  -->
<!DOCTYPE svg PUBLIC "-//W3C//DTD SVG 1.1//EN" "http://www.w3.org/Graphics/SVG/1.1/DTD/svg11.dtd">
<svg version="1.1" id="Layer_1" xmlns="http://www.w3.org/2000/svg" xmlns:xlink="http://www.w3.org/1999/xlink" x="0px" y="0px"
	 viewBox="0 0 89.2 19.6" enable-background="new 0 0 89.2 19.6" xml:space="preserve">
<path fill="#365074" d="M1.1,15C1.5,15,2.2,15,2.9,15c0.9,0,1.5,0.1,2,0.3c0.4,0.2,0.6,0.4,0.6,0.7c0,0.4-0.6,0.7-1.1,0.8v0
	c0.4,0.1,0.7,0.3,0.8,0.6c0.2,0.4,0.4,0.8,0.5,0.9H4.3C4.2,18.2,4,18,3.9,17.6c-0.2-0.4-0.4-0.5-1-0.5H2.5v1.3H1.1V15z M2.5,16.5H3
	c0.7,0,1.1-0.2,1.1-0.5c0-0.3-0.4-0.5-1-0.5c-0.3,0-0.5,0-0.6,0V16.5z"/>
<polygon fill="#365074" points="11.2,16.9 8.9,16.9 8.9,17.7 11.4,17.7 11.4,18.3 7.6,18.3 7.6,15 11.3,15 11.3,15.6 8.9,15.6 
	8.9,16.3 11.2,16.3 "/>
<path fill="#365074" d="M13.5,17.6c0.4,0.1,0.9,0.2,1.5,0.2c0.6,0,1-0.1,1-0.4c0-0.2-0.3-0.3-1-0.5c-1-0.2-1.7-0.5-1.7-1
	c0-0.6,0.9-1,2.3-1c0.7,0,1.2,0.1,1.6,0.2l-0.3,0.6c-0.2-0.1-0.7-0.2-1.3-0.2c-0.6,0-0.9,0.1-0.9,0.3c0,0.2,0.3,0.3,1.1,0.5
	c1.1,0.2,1.6,0.5,1.6,1c0,0.6-0.8,1-2.5,1c-0.7,0-1.4-0.1-1.7-0.2L13.5,17.6z"/>
<polygon fill="#365074" points="23.1,16.9 20.9,16.9 20.9,17.7 23.4,17.7 23.4,18.3 19.5,18.3 19.5,15 23.2,15 23.2,15.6 20.9,15.6 
	20.9,16.3 23.1,16.3 "/>
<path fill="#365074" d="M26.8,17.5l-0.4,0.9H25l1.9-3.3h1.8l1.9,3.3H29l-0.5-0.9H26.8z M28.4,16.9L28,16.2c-0.1-0.2-0.2-0.4-0.3-0.6
	h0c-0.1,0.2-0.2,0.5-0.3,0.6L27,16.9H28.4z"/>
<path fill="#365074" d="M32.4,15c0.4,0,1.1-0.1,1.8-0.1c0.9,0,1.5,0.1,2,0.3c0.4,0.2,0.6,0.4,0.6,0.7c0,0.4-0.5,0.7-1.1,0.8v0
	c0.4,0.1,0.7,0.3,0.8,0.6c0.2,0.4,0.4,0.8,0.5,0.9h-1.4c-0.1-0.1-0.2-0.4-0.4-0.8c-0.2-0.4-0.4-0.5-1-0.5h-0.4v1.3h-1.4V15z
	 M33.8,16.5h0.5c0.7,0,1.1-0.2,1.1-0.5c0-0.3-0.4-0.5-1-0.5c-0.3,0-0.5,0-0.6,0V16.5z"/>
<path fill="#365074" d="M43.3,18.2c-0.3,0.1-0.8,0.1-1.6,0.1c-2.1,0-3.2-0.7-3.2-1.7c0-1.1,1.5-1.8,3.3-1.8c0.7,0,1.3,0.1,1.5,0.1
	l-0.3,0.6c-0.3-0.1-0.7-0.1-1.2-0.1c-1.1,0-1.9,0.4-1.9,1.1c0,0.7,0.7,1.1,1.9,1.1c0.4,0,0.9,0,1.1-0.1L43.3,18.2z"/>
<polygon fill="#365074" points="46.7,15 46.7,16.3 49,16.3 49,15 50.4,15 50.4,18.3 49,18.3 49,16.9 46.7,16.9 46.7,18.3 45.4,18.3 
	45.4,15 "/>
<path fill="#365074" d="M60.3,18.2c-0.4,0.1-1.2,0.2-2,0.2c-1.1,0-1.9-0.2-2.5-0.5c-0.6-0.3-0.9-0.7-0.9-1.2c0-1.1,1.5-1.7,3.5-1.7
	c0.8,0,1.4,0.1,1.7,0.2l-0.3,0.6c-0.3-0.1-0.7-0.1-1.4-0.1c-1.1,0-2,0.4-2,1.1c0,0.7,0.8,1.1,1.9,1.1c0.3,0,0.6,0,0.7,0V17h-0.9
	v-0.6h2.3V18.2z"/>
<path fill="#365074" d="M62.5,15.1c0.4,0,1.1-0.1,1.8-0.1c0.9,0,1.5,0.1,2,0.3c0.4,0.2,0.6,0.4,0.6,0.7c0,0.4-0.5,0.7-1.1,0.8v0
	c0.4,0.1,0.7,0.3,0.8,0.6c0.2,0.4,0.4,0.8,0.5,0.9h-1.4c-0.1-0.1-0.2-0.4-0.4-0.8c-0.2-0.4-0.4-0.5-1-0.5h-0.4v1.3h-1.4V15.1z
	 M63.9,16.5h0.5c0.7,0,1.1-0.2,1.1-0.5c0-0.3-0.4-0.5-1-0.5c-0.3,0-0.5,0-0.6,0V16.5z"/>
<path fill="#365074" d="M74.5,16.6c0,1.1-1.2,1.8-3,1.8c-1.8,0-2.9-0.7-2.9-1.7c0-1,1.2-1.7,3-1.7C73.5,15,74.5,15.7,74.5,16.6
	 M70.1,16.7c0,0.7,0.6,1.1,1.5,1.1c0.9,0,1.5-0.5,1.5-1.1c0-0.6-0.5-1.1-1.5-1.1C70.7,15.6,70.1,16,70.1,16.7"/>
<path fill="#365074" d="M77.9,15v1.9c0,0.6,0.4,0.9,1.1,0.9c0.7,0,1.1-0.3,1.1-0.9V15h1.4v1.9c0,1-0.9,1.5-2.5,1.5
	c-1.5,0-2.4-0.5-2.4-1.5V15H77.9z"/>
<path fill="#365074" d="M83.8,15.1c0.4,0,1-0.1,1.9-0.1c0.9,0,1.4,0.2,1.8,0.3c0.4,0.2,0.7,0.5,0.7,0.8c0,0.3-0.2,0.6-0.6,0.8
	c-0.5,0.2-1.1,0.2-1.9,0.2c-0.2,0-0.3,0-0.5,0v1.2h-1.4V15.1z M85.2,16.6c0.1,0,0.3,0,0.5,0c0.9,0,1.2-0.1,1.2-0.5
	c0-0.3-0.4-0.5-1.1-0.5c-0.3,0-0.5,0-0.6,0V16.6z"/>
<path fill="#365074" d="M8.3,5.1c1.4,0,2.6,0.7,3.4,1.7L8.5,1.3L5,6.8C5.8,5.8,7,5.2,8.3,5.1"/>
<path fill="#365074" d="M8.5,13.2l7.1,0l-3.5-5.8C12.9,9.8,11.8,13,8.5,13.2"/>
<path fill="#365074" d="M8.3,13.2c-2.3,0-4-1.9-4-4.1c0-0.6,0.2-1.2,0.4-1.7l-3.6,5.8L8.3,13.2z"/>
<path fill="#365074" d="M17.8,10.4c1.3,0.4,3.1,0.7,5,0.7c1.7,0,3-0.4,2.7-1.4c-0.2-0.7-1.2-1.1-3.2-1.6c-2.4-0.7-4.7-1.6-5.2-3.1
	c-0.8-2.3,2.3-3.7,6.6-3.7c2.4,0,4,0.3,4.9,0.6L28,4c-0.7-0.2-2.2-0.5-3.9-0.5c-2,0-2.8,0.6-2.6,1.2c0.2,0.7,1.6,1.1,3.4,1.6
	c2.7,0.7,4.5,1.7,5,3c0.9,2.6-2.4,3.9-6.8,3.9c-2.8,0-4.9-0.4-6-0.8L17.8,10.4z"/>
<path fill="#365074" d="M32.9,1.7c1.6-0.2,3.5-0.3,5.4-0.3c3.1,0,5.7,0.4,7.7,1.3c1.9,0.8,3.3,1.9,3.9,3.6c0.8,2.2-0.2,4.2-2.3,5.3
	c-1.9,1.1-4.7,1.5-9,1.5c-2.4,0-4.5-0.1-5.5-0.2L32.9,1.7z M37.2,11.2c0.5,0.1,1.1,0.1,1.9,0.1c2.3,0,4.2-0.5,5.2-1.4
	c1.1-0.9,1.4-2.1,0.9-3.5c-0.6-1.8-2.7-2.9-6.2-2.9c-0.7,0-1.4,0-1.8,0.1L37.2,11.2z"/>
<polygon fill="#365074" points="57.1,13.3 53.1,13.3 53,1.4 58,1.4 64.8,9.3 64.8,1.4 69.1,1.4 69.1,13.3 64.8,13.3 57.1,4.4 "/>
<path fill="#365074" d="M72.7,1.3h4.2L77,6.8h0.1c0.4-0.5,0.9-0.9,1.3-1.3l4.2-4.1H88l-6.4,5.3l6.5,6.7h-4.3l-5.1-5.1L77,9.4l0,3.9
	h-4.2L72.7,1.3z"/>
</svg>
